<svg xmlns="http://www.w3.org/2000/svg" viewBox="0 0 400 300" width="406" height="306" class="illustration styles_illustrationTablet__1DWOa"><g id="_104_slow_working_outline" data-name="#104_slow_working_outline"><rect x="174.68" y="212.97" width="86.3" height="5.81" transform="translate(435.66 431.74) rotate(-180)" fill="#ffbc0e"></rect><path d="M261,219.78h-86.3a1,1,0,0,1-1-1V213a1,1,0,0,1,1-1H261a1,1,0,0,1,1,1v5.81A1,1,0,0,1,261,219.78Zm-85.3-2H260V214h-84.3Z" fill="#093f68"></path><path d="M197.45,160.93h79.37a3.23,3.23,0,0,1,3,4.41L261,213h-86.3l19.77-50A3.23,3.23,0,0,1,197.45,160.93Z" fill="#ffbc0e"></path><path d="M261,214h-86.3a1,1,0,0,1-.93-1.37l19.77-50a4.22,4.22,0,0,1,3.93-2.67h79.37a4.23,4.23,0,0,1,3.93,5.78l-18.84,47.62A1,1,0,0,1,261,214Zm-84.83-2H260.3l18.59-47a2.23,2.23,0,0,0-2.07-3H197.45a2.21,2.21,0,0,0-2.07,1.41Z" fill="#093f68"></path><polygon points="199.14 166.19 273.52 166.19 257.42 206.9 183.04 206.9 199.14 166.19" fill="#fff"></polygon><path d="M257.42,207.9H183a1,1,0,0,1-.93-1.37l16.1-40.7a1,1,0,0,1,.93-.63h74.38a1,1,0,0,1,.83.43,1,1,0,0,1,.1.93l-16.1,40.71A1,1,0,0,1,257.42,207.9Zm-72.91-2h72.23l15.31-38.7H199.82Z" fill="#093f68"></path><path d="M216.82,203.23a1,1,0,0,1-.81-.41l-16.83-22.91a1,1,0,1,1,1.61-1.18l16.84,22.91a1,1,0,0,1-.22,1.39A.94.94,0,0,1,216.82,203.23Z" fill="#dfeaef"></path><rect x="99.17" y="218.78" width="196.32" height="9.31" rx="3.53" transform="translate(394.67 446.86) rotate(-180)" fill="#093f68"></rect><path d="M292,229.09H102.71a4.55,4.55,0,0,1-4.54-4.54v-2.24a4.54,4.54,0,0,1,4.54-4.53H292a4.54,4.54,0,0,1,4.54,4.53v2.24A4.55,4.55,0,0,1,292,229.09Zm-189.25-9.31a2.54,2.54,0,0,0-2.54,2.53v2.24a2.54,2.54,0,0,0,2.54,2.54H292a2.54,2.54,0,0,0,2.54-2.54v-2.24a2.54,2.54,0,0,0-2.54-2.53Z" fill="#093f68"></path><path d="M199.2,104c3.69,17.07,12,10.8,14.68,8.54l-10,30.59a30.92,30.92,0,0,1-36.37,20.54l-2.05,6.27a5.27,5.27,0,1,1-10-3.27l1.92-5.89c-17.61-6.47-21.31-24.64-16.87-38.3L154,96.74S162.72,109.64,199.2,104Z" fill="#ffc9b0"></path><path d="M160.48,174.56a6.29,6.29,0,0,1-1.94-.31,6.27,6.27,0,0,1-4-7.91l1.62-5a27.9,27.9,0,0,1-16.39-16.71,35.19,35.19,0,0,1-.18-22.5,1,1,0,0,1,.07-.15L153.1,96.28a1,1,0,0,1,.83-.53,1,1,0,0,1,.89.43c.08.12,9,12.28,44.23,6.81a1,1,0,0,1,1.13.78c1.3,6,3.36,9.67,5.94,10.54,2,.66,4.36-.19,7.11-2.55a1,1,0,0,1,1.6,1.07l-10,30.59a32.12,32.12,0,0,1-36.65,21.4l-1.77,5.41A6.27,6.27,0,0,1,160.48,174.56Zm-19-51.71c-4.45,13.78-.29,30.88,16.28,37a1,1,0,0,1,.61,1.24L156.42,167a4.28,4.28,0,0,0,8.13,2.65l2-6.27a1,1,0,0,1,1.18-.67A30.07,30.07,0,0,0,203,142.8l9-27.66c-2.34,1.37-4.52,1.73-6.49,1.07-3.19-1.08-5.56-4.81-7.06-11.1-29.76,4.42-41-3.47-44.23-6.61Z" fill="#093f68"></path><path d="M142.71,229.33a1,1,0,0,1-1-1V186.15a1,1,0,0,1,2,0v42.18A1,1,0,0,1,142.71,229.33Z" fill="#093f68"></path><path d="M117.51,228.33l10.38-56.48.83-1a10.28,10.28,0,0,1,7.13-2.86h39.94c1.09,0,5.11-.52,11.55,4.87,9.3,7.81,16.4,18.5,23.35,25.16l-7.23-24.4,19.37-6.82c.15.42,5.25,8.93,10.18,19.47,9.05,19.37,7.2,27.24,4.56,32.08a14.33,14.33,0,0,1-9.28,7.23,15.36,15.36,0,0,1-3.57.43c-8,0-20.82-1.46-36.27-17.31-1.18-1.21-2.34-2.43-3.48-3.62l-7.34,23.22Z" fill="#68e1fd"></path><path d="M177.63,229.33H117.51a1,1,0,0,1-.77-.36,1,1,0,0,1-.22-.82l10.39-56.48a1.07,1.07,0,0,1,.22-.47c.53-.63.84-1,.84-1a11.25,11.25,0,0,1,7.88-3.21H176c1.55,0,5.66-.16,11.95,5.12,5.54,4.65,10.39,10.4,14.67,15.48,2,2.42,4,4.75,5.93,6.84l-6.08-20.52a1,1,0,0,1,.63-1.23l19.37-6.82a1,1,0,0,1,.77.05,1,1,0,0,1,.51.57l.74,1.32c1.67,3,5.58,9.89,9.4,18.06,9.2,19.71,7.26,28,4.53,33a15.31,15.31,0,0,1-9.93,7.72,15.93,15.93,0,0,1-3.8.46c-8.51,0-21.6-1.83-37-17.61-.79-.8-1.56-1.61-2.32-2.41l-6.84,21.61A1,1,0,0,1,177.63,229.33Zm-58.92-2h58.18L184,204.8a1,1,0,0,1,.73-.67,1,1,0,0,1,.95.29c1.13,1.19,2.29,2.4,3.47,3.61,14.69,15.07,26.71,17,35.55,17a14.05,14.05,0,0,0,3.33-.41,13.33,13.33,0,0,0,8.65-6.73c2.49-4.59,4.23-12.28-4.6-31.17-3.78-8.1-7.66-15-9.32-17.93l-.42-.75-17.67,6.23,7,23.48a1,1,0,0,1-.44,1.14,1,1,0,0,1-1.21-.13,130.76,130.76,0,0,1-8.88-9.87c-4.43-5.26-9-10.7-14.43-15.24-5.7-4.79-9.27-4.69-10.61-4.65H135.85a9.25,9.25,0,0,0-6.43,2.58l-.59.69Z" fill="#093f68"></path><path d="M184.73,205.79a1,1,0,0,1-.93-1.37l6-15.24a1,1,0,0,1,1.86.74l-6,15.24A1,1,0,0,1,184.73,205.79Z" fill="#093f68"></path><path d="M153.07,173.56H117.31a11,11,0,0,0-11.15,12.51l4.59,42.26h60.78l-4.59-42.26A14.31,14.31,0,0,0,153.07,173.56Z" fill="#093f68"></path><path d="M171.53,229.33H110.75a1,1,0,0,1-1-.89l-4.59-42.26a12.25,12.25,0,0,1,3-9.65,12.12,12.12,0,0,1,9.17-4h35.76A15.34,15.34,0,0,1,167.93,186l4.59,42.26a1,1,0,0,1-.25.78A1,1,0,0,1,171.53,229.33Zm-59.88-2h58.76l-4.47-41.15a13.28,13.28,0,0,0-12.87-11.62H117.31A10,10,0,0,0,107.16,186Z" fill="#093f68"></path><path d="M147.6,173.56H111.83a11,11,0,0,0-11.14,12.51l4.59,42.26h60.77l-4.59-42.26A14.3,14.3,0,0,0,147.6,173.56Z" fill="#f56132"></path><path d="M166.05,229.33H105.28a1,1,0,0,1-1-.89l-4.59-42.26a12.26,12.26,0,0,1,3-9.65,12.1,12.1,0,0,1,9.16-4H147.6A15.33,15.33,0,0,1,162.45,186L167,228.22a1,1,0,0,1-.25.78A1,1,0,0,1,166.05,229.33Zm-59.88-2h58.76l-4.47-41.15a13.27,13.27,0,0,0-12.86-11.62H111.83a10.13,10.13,0,0,0-7.67,3.31,10.27,10.27,0,0,0-2.48,8.09Z" fill="#093f68"></path><path d="M206.27,172.66l-8.31-19s10.65-30.2,12.83-27.29,2.36,24.39,2.36,24.39.73,5.28,8.44,16.48Z" fill="#ffc9b0"></path><path d="M206.27,173.66a1,1,0,0,1-.92-.6l-8.31-19a1,1,0,0,1,0-.73c0-.07,2.43-6.86,5.15-13.62,5.7-14.16,7.17-14.38,8.05-14.52a1.43,1.43,0,0,1,1.38.58c2.25,3,2.53,21.09,2.56,24.91.1.55,1.23,5.77,8.26,16a1,1,0,0,1,.13.88,1,1,0,0,1-.62.63L206.6,173.6A1,1,0,0,1,206.27,173.66Zm-7.24-20,7.78,17.75L220,166.77c-7.07-10.53-7.84-15.61-7.87-15.83,0,0,0-.09,0-.13-.06-7.67-.64-20.21-1.9-23.31C208.21,129.76,203.13,142.07,199,153.66Z" fill="#093f68"></path><path d="M198.51,154.18c-.39-2.35-1.18-4.61-1.72-6.93a14.37,14.37,0,0,1-.18-7.07c.25-.9,1-1.92,1.87-1.63a1.86,1.86,0,0,1,.82.73,32.61,32.61,0,0,1,3.77,8.06l.66,1.83" fill="#ffc9b0"></path><path d="M198.51,155.18a1,1,0,0,1-1-.83,40.83,40.83,0,0,0-1-4.15c-.25-.91-.51-1.81-.72-2.73a15.11,15.11,0,0,1-.16-7.56,3.57,3.57,0,0,1,1.58-2.17,2,2,0,0,1,1.57-.14,2.7,2.7,0,0,1,1.31,1.1A33.05,33.05,0,0,1,204,147l.09.24.57,1.6a1,1,0,0,1-1.89.66c-.18-.53-.37-1.05-.56-1.58l-.09-.24a31.64,31.64,0,0,0-3.64-7.81c-.21-.29-.3-.36-.33-.37a1.64,1.64,0,0,0-.58.95,13.1,13.1,0,0,0,.18,6.57c.21.89.45,1.76.69,2.64a40.75,40.75,0,0,1,1,4.36,1,1,0,0,1-.82,1.15Z" fill="#093f68"></path><path d="M194.35,141c-.08-.65-.14-1.28-.17-1.91a16.83,16.83,0,0,1,3.74-11.2c2.8-3.51,5.37-3.7,9.19-5.06,15.46-5.55,10.69-28.52-2.37-33.72a11.66,11.66,0,0,1-3.09-1.45,11.12,11.12,0,0,1-2.17-2.9c-6-9.53-19.88-12.35-30.45-11.18-17,1.88-27.79,18.48-30.5,34.1-.59,3.36-.87,6.92-2.72,9.77-3.63,5.62-12.12,6.75-15.24,12.66-2.41,4.56-.85,10.76-4.15,14.73-1.85,2.24-4.82,3.18-7.17,4.9-10,7.35,6.07,13.7,11.81,15,8,1.83,15.85,2.29,23.78,3.82A102.68,102.68,0,0,0,174,170c5.15-.47,11.26-2.15,12.74-7.12.69-2.32.19-5,1.43-7.06s3.82-2.9,5.3-4.79C195.58,148.32,194.77,144.57,194.35,141Z" fill="#725858"></path><path d="M164.44,171.47a104.65,104.65,0,0,1-19.79-1.9c-3.46-.67-7-1.15-10.38-1.6-4.38-.59-8.91-1.2-13.43-2.24-3.71-.85-14.54-4.54-15.7-10.18-.48-2.32.7-4.55,3.52-6.61a27,27,0,0,1,2.87-1.76,13.86,13.86,0,0,0,4.12-3c1.63-2,1.95-4.62,2.28-7.43a20,20,0,0,1,1.76-7.13c1.75-3.32,5-5.21,8.16-7,2.83-1.64,5.51-3.2,7.12-5.69,1.43-2.2,1.85-4.87,2.29-7.69.09-.57.18-1.14.28-1.71,2.69-15.45,13.66-33,31.38-34.93,11.19-1.24,25.25,1.88,31.4,11.64l.35.56a7.7,7.7,0,0,0,1.6,2.09,7.63,7.63,0,0,0,2.14,1l.7.26c7.38,2.94,12.83,11.8,12.67,20.61-.12,7.21-3.89,12.67-10.33,15-.76.27-1.46.49-2.13.7-2.64.85-4.55,1.45-6.62,4A15.91,15.91,0,0,0,195.18,139c0,.6.09,1.22.16,1.84,0,.41.1.81.16,1.22.43,3.35.88,6.82-1.29,9.57a12.13,12.13,0,0,1-2.69,2.34,8.71,8.71,0,0,0-2.53,2.35,8.62,8.62,0,0,0-.85,3.7,14.94,14.94,0,0,1-.48,3.13c-1.32,4.42-6,7.12-13.61,7.83Q169.25,171.47,164.44,171.47Zm9.27-97.15a42.57,42.57,0,0,0-4.57.25c-16.7,1.85-27.06,18.55-29.63,33.29l-.27,1.67c-.46,2.9-.93,5.91-2.59,8.47-1.88,2.89-4.89,4.64-7.8,6.33s-5.91,3.43-7.39,6.25a18.18,18.18,0,0,0-1.54,6.42c-.36,3-.72,6.06-2.73,8.48a15.48,15.48,0,0,1-4.68,3.44,25.6,25.6,0,0,0-2.67,1.63c-2.13,1.56-3,3.11-2.74,4.6.82,4,9.64,7.59,14.19,8.63s8.91,1.62,13.24,2.2c3.43.47,7,.94,10.5,1.62A102.21,102.21,0,0,0,173.86,169c4.68-.44,10.54-1.9,11.88-6.41a13.69,13.69,0,0,0,.41-2.73,8,8,0,0,1,4.21-7.51,10.73,10.73,0,0,0,2.28-1.95c1.65-2.09,1.27-5,.87-8.07l-.15-1.25h0c-.08-.66-.15-1.32-.18-2a18,18,0,0,1,4-11.88c2.45-3.06,4.82-3.81,7.57-4.69.65-.21,1.33-.42,2.06-.69,5.62-2,8.9-6.8,9-13.13.14-8-4.76-16.06-11.41-18.71l-.66-.25a7.34,7.34,0,0,1-4.75-4l-.33-.53C193.74,77.52,183.27,74.32,173.71,74.32Z" fill="#093f68"></path><path d="M250.63,190.38a1,1,0,0,1-.73-.31l-15-15.82a1,1,0,0,1,1.45-1.37l15,15.81a1,1,0,0,1,0,1.42A1,1,0,0,1,250.63,190.38Z" fill="#dfeaef"></path><circle cx="254.43" cy="101.41" r="22.37" fill="#fff"></circle><path d="M254.43,124.78a23.38,23.38,0,1,1,23.37-23.37A23.4,23.4,0,0,1,254.43,124.78Zm0-44.75a21.38,21.38,0,1,0,21.37,21.38A21.4,21.4,0,0,0,254.43,80Z" fill="#dfeaef"></path><polyline points="245.88 94.61 254.43 101.41 251.81 84.74" fill="#fff"></polyline><path d="M254.43,102.41a1,1,0,0,1-.62-.22l-8.56-6.79a1,1,0,0,1,1.25-1.57L253,99,250.82,84.9a1,1,0,1,1,2-.31l2.62,16.66a1,1,0,0,1-.49,1A1,1,0,0,1,254.43,102.41Z" fill="#dfeaef"></path><path d="M273.52,200.45h16a0,0,0,0,1,0,0v12.31a5.37,5.37,0,0,1-5.37,5.37h-5.31a5.37,5.37,0,0,1-5.37-5.37V200.45A0,0,0,0,1,273.52,200.45Z" fill="#70cc40"></path><path d="M284.2,219.13h-5.31a6.38,6.38,0,0,1-6.37-6.37V200.45a1,1,0,0,1,1-1h16.05a1,1,0,0,1,1,1v12.31A6.38,6.38,0,0,1,284.2,219.13Zm-9.68-17.68v11.31a4.37,4.37,0,0,0,4.37,4.37h5.31a4.37,4.37,0,0,0,4.37-4.37V201.45Z" fill="#093f68"></path><path d="M292,213.84h-2.42a1,1,0,0,1-1-1v-9.67a1,1,0,0,1,1-1H292a5.84,5.84,0,1,1,0,11.67Zm-1.42-2H292a3.84,3.84,0,1,0,0-7.67h-1.42Z" fill="#093f68"></path></g></svg>